<svg xmlns="http://www.w3.org/2000/svg" width="89.356" height="105.661" viewBox="0 0 89.356 105.661">
  <g id="illustration-box-desktop" transform="translate(-50.93 -2.126)">
    <g id="Group_1" data-name="Group 1" transform="translate(50.93 2.125)">
      <path id="Path_1" data-name="Path 1" d="M0,27.756v53.87l41.968,24.035L89.355,77.636V23.766"/>
      <path id="Path_2" data-name="Path 2" d="M0,27.756v53.87l41.968,24.035L89.355,77.636V23.766" fill="#ff9271"/>
    </g>
    <path id="Path_3" data-name="Path 3" d="M92.9,53.917v53.87l47.387-28.026V25.891Z" fill="#df5c34"/>
    <path id="Path_4" data-name="Path 4" d="M50.93,29.88,99.624,2.126l40.662,23.767L92.9,53.918Z" fill="#f47b56"/>
    <path id="Path_5" data-name="Path 5" d="M94.013,14.49a25.942,25.942,0,0,1,14.207,3.129c2.486,1.462,3.844,2.988,4.036,4.579s-.628,2.975-2.562,4.143a9.115,9.115,0,0,1-2.985,1.18,10.246,10.246,0,0,1-2.652.269l-.974-.077a2.577,2.577,0,0,1,.18.68,3.132,3.132,0,0,1-.513,1.552,5.7,5.7,0,0,1-2.1,2.065,12.633,12.633,0,0,1-6.7,1.77,13.247,13.247,0,0,1-6.957-1.757c-2-1.18-3.023-2.566-3.1-4.156a4.49,4.49,0,0,1,2.562-4.015,8.488,8.488,0,0,1,2.357-1.013,9.175,9.175,0,0,1,2.037-.346h.705l-1.282-.77,3.6-2.244,8.34,4.912a4.377,4.377,0,0,0,4.15,0q2.653-1.654-1.895-4.348A19.261,19.261,0,0,0,93.911,17.7a21.67,21.67,0,0,0-11.018,3.168q-4.535,2.835-4.5,6.76c0,2.564,1.6,4.848,4.714,6.682a21.015,21.015,0,0,0,11.146,2.655,20.926,20.926,0,0,0,11.017-2.925,12.353,12.353,0,0,0,3.062-2.565,5.683,5.683,0,0,0,1.28-2.18l.18-.808,4.753.269a3.962,3.962,0,0,1,0,.436,8.217,8.217,0,0,1-.346,1.154,8.3,8.3,0,0,1-.82,1.72,11.912,11.912,0,0,1-1.69,2,15.952,15.952,0,0,1-2.755,2.13,25.6,25.6,0,0,1-9.326,3.36,35.176,35.176,0,0,1-10.877.192A24.9,24.9,0,0,1,79.4,36.691a12.127,12.127,0,0,1-5.3-5.566,8.192,8.192,0,0,1,0-6.593,12.692,12.692,0,0,1,5.266-5.759,28.966,28.966,0,0,1,14.655-4.284Zm4.663,13.262a2.743,2.743,0,0,0-1.6-2,6.579,6.579,0,0,0-3.33-.911,5.619,5.619,0,0,0-3.1.795,2.283,2.283,0,0,0-1.281,2,2.562,2.562,0,0,0,1.512,2.014,6.54,6.54,0,0,0,3.394.86,6.092,6.092,0,0,0,3.254-.847,2.065,2.065,0,0,0,1.2-1.911" fill="#3e2928"/>
  </g>
</svg>
